<mxfile host="Electron" modified="2023-11-09T17:16:38.645Z" agent="Mozilla/5.0 (Windows NT 10.0; Win64; x64) AppleWebKit/537.36 (KHTML, like Gecko) draw.io/22.0.3 Chrome/114.0.5735.289 Electron/25.8.4 Safari/537.36" etag="Hmyl_-az7AE5XTf9hjss" version="22.0.3" type="device">
  <diagram id="C5RBs43oDa-KdzZeNtuy" name="Page-1">
    <mxGraphModel dx="2072" dy="2381" grid="1" gridSize="10" guides="1" tooltips="1" connect="1" arrows="1" fold="1" page="1" pageScale="1" pageWidth="827" pageHeight="1169" math="0" shadow="0">
      <root>
        <mxCell id="WIyWlLk6GJQsqaUBKTNV-0" />
        <mxCell id="WIyWlLk6GJQsqaUBKTNV-1" parent="WIyWlLk6GJQsqaUBKTNV-0" />
        <mxCell id="6eJlKw85BkEIQBGvRNYy-0" value="Start" style="ellipse;whiteSpace=wrap;html=1;" parent="WIyWlLk6GJQsqaUBKTNV-1" vertex="1">
          <mxGeometry x="83.25" y="-390" width="120" height="80" as="geometry" />
        </mxCell>
        <mxCell id="YhOTxX4KygDr3iV7FcbI-1" style="edgeStyle=orthogonalEdgeStyle;rounded=0;orthogonalLoop=1;jettySize=auto;html=1;entryX=0;entryY=0.5;entryDx=0;entryDy=0;" parent="WIyWlLk6GJQsqaUBKTNV-1" source="6eJlKw85BkEIQBGvRNYy-1" target="YhOTxX4KygDr3iV7FcbI-0" edge="1">
          <mxGeometry relative="1" as="geometry">
            <Array as="points">
              <mxPoint x="380" y="-20" />
            </Array>
          </mxGeometry>
        </mxCell>
        <mxCell id="6eJlKw85BkEIQBGvRNYy-1" value="year,month,day" style="shape=parallelogram;perimeter=parallelogramPerimeter;whiteSpace=wrap;html=1;fixedSize=1;" parent="WIyWlLk6GJQsqaUBKTNV-1" vertex="1">
          <mxGeometry x="290" y="-290" width="180" height="90" as="geometry" />
        </mxCell>
        <mxCell id="6eJlKw85BkEIQBGvRNYy-2" style="edgeStyle=orthogonalEdgeStyle;rounded=0;orthogonalLoop=1;jettySize=auto;html=1;entryX=0.575;entryY=-0.017;entryDx=0;entryDy=0;entryPerimeter=0;" parent="WIyWlLk6GJQsqaUBKTNV-1" source="6eJlKw85BkEIQBGvRNYy-0" target="6eJlKw85BkEIQBGvRNYy-1" edge="1">
          <mxGeometry relative="1" as="geometry" />
        </mxCell>
        <mxCell id="6eJlKw85BkEIQBGvRNYy-6" style="edgeStyle=orthogonalEdgeStyle;rounded=0;orthogonalLoop=1;jettySize=auto;html=1;entryX=0.5;entryY=0;entryDx=0;entryDy=0;" parent="WIyWlLk6GJQsqaUBKTNV-1" target="6eJlKw85BkEIQBGvRNYy-5" edge="1">
          <mxGeometry relative="1" as="geometry">
            <mxPoint x="460" y="150.00000000000045" as="sourcePoint" />
          </mxGeometry>
        </mxCell>
        <mxCell id="6eJlKw85BkEIQBGvRNYy-8" style="edgeStyle=orthogonalEdgeStyle;rounded=0;orthogonalLoop=1;jettySize=auto;html=1;" parent="WIyWlLk6GJQsqaUBKTNV-1" source="hYsjxtnpzR200vg89-Xv-2" target="6eJlKw85BkEIQBGvRNYy-7" edge="1">
          <mxGeometry relative="1" as="geometry">
            <mxPoint x="460" y="150.00000000000045" as="sourcePoint" />
          </mxGeometry>
        </mxCell>
        <mxCell id="6eJlKw85BkEIQBGvRNYy-12" style="edgeStyle=orthogonalEdgeStyle;rounded=0;orthogonalLoop=1;jettySize=auto;html=1;" parent="WIyWlLk6GJQsqaUBKTNV-1" target="6eJlKw85BkEIQBGvRNYy-11" edge="1">
          <mxGeometry relative="1" as="geometry">
            <mxPoint x="340" y="150.00000000000045" as="sourcePoint" />
          </mxGeometry>
        </mxCell>
        <mxCell id="YhOTxX4KygDr3iV7FcbI-16" style="edgeStyle=orthogonalEdgeStyle;rounded=0;orthogonalLoop=1;jettySize=auto;html=1;entryX=0;entryY=0.5;entryDx=0;entryDy=0;exitX=0.5;exitY=1;exitDx=0;exitDy=0;" parent="WIyWlLk6GJQsqaUBKTNV-1" source="hYsjxtnpzR200vg89-Xv-2" target="6eJlKw85BkEIQBGvRNYy-9" edge="1">
          <mxGeometry relative="1" as="geometry">
            <Array as="points">
              <mxPoint x="400" y="196" />
              <mxPoint x="400" y="310" />
              <mxPoint x="640" y="310" />
              <mxPoint x="640" y="315" />
            </Array>
            <mxPoint x="400" y="210" as="sourcePoint" />
          </mxGeometry>
        </mxCell>
        <mxCell id="6eJlKw85BkEIQBGvRNYy-18" style="edgeStyle=orthogonalEdgeStyle;rounded=0;orthogonalLoop=1;jettySize=auto;html=1;entryX=0;entryY=0.5;entryDx=0;entryDy=0;entryPerimeter=0;" parent="WIyWlLk6GJQsqaUBKTNV-1" source="6eJlKw85BkEIQBGvRNYy-5" target="YhOTxX4KygDr3iV7FcbI-21" edge="1">
          <mxGeometry relative="1" as="geometry">
            <mxPoint x="780" y="760" as="targetPoint" />
          </mxGeometry>
        </mxCell>
        <mxCell id="6eJlKw85BkEIQBGvRNYy-5" value="case 1,3,5,7,8,10,12" style="rhombus;whiteSpace=wrap;html=1;" parent="WIyWlLk6GJQsqaUBKTNV-1" vertex="1">
          <mxGeometry x="470" y="610" width="170" height="120" as="geometry" />
        </mxCell>
        <mxCell id="6eJlKw85BkEIQBGvRNYy-14" style="edgeStyle=orthogonalEdgeStyle;rounded=0;orthogonalLoop=1;jettySize=auto;html=1;entryX=0;entryY=0.5;entryDx=0;entryDy=0;" parent="WIyWlLk6GJQsqaUBKTNV-1" source="6eJlKw85BkEIQBGvRNYy-7" target="YhOTxX4KygDr3iV7FcbI-8" edge="1">
          <mxGeometry relative="1" as="geometry">
            <mxPoint x="820" y="327.5" as="targetPoint" />
          </mxGeometry>
        </mxCell>
        <mxCell id="6eJlKw85BkEIQBGvRNYy-7" value="case 4,6, 9,11" style="rhombus;whiteSpace=wrap;html=1;" parent="WIyWlLk6GJQsqaUBKTNV-1" vertex="1">
          <mxGeometry x="860" y="100" width="170" height="115" as="geometry" />
        </mxCell>
        <mxCell id="6eJlKw85BkEIQBGvRNYy-16" style="edgeStyle=orthogonalEdgeStyle;rounded=0;orthogonalLoop=1;jettySize=auto;html=1;entryX=0.163;entryY=0.652;entryDx=0;entryDy=0;entryPerimeter=0;" parent="WIyWlLk6GJQsqaUBKTNV-1" source="6eJlKw85BkEIQBGvRNYy-9" target="YhOTxX4KygDr3iV7FcbI-18" edge="1">
          <mxGeometry relative="1" as="geometry">
            <mxPoint x="1290" y="380" as="targetPoint" />
          </mxGeometry>
        </mxCell>
        <mxCell id="6eJlKw85BkEIQBGvRNYy-9" value="case 2" style="rhombus;whiteSpace=wrap;html=1;" parent="WIyWlLk6GJQsqaUBKTNV-1" vertex="1">
          <mxGeometry x="820" y="260" width="200" height="110" as="geometry" />
        </mxCell>
        <mxCell id="6eJlKw85BkEIQBGvRNYy-20" style="edgeStyle=orthogonalEdgeStyle;rounded=0;orthogonalLoop=1;jettySize=auto;html=1;entryX=0.5;entryY=0;entryDx=0;entryDy=0;" parent="WIyWlLk6GJQsqaUBKTNV-1" source="6eJlKw85BkEIQBGvRNYy-11" target="6eJlKw85BkEIQBGvRNYy-19" edge="1">
          <mxGeometry relative="1" as="geometry" />
        </mxCell>
        <mxCell id="6eJlKw85BkEIQBGvRNYy-11" value="default" style="rhombus;whiteSpace=wrap;html=1;" parent="WIyWlLk6GJQsqaUBKTNV-1" vertex="1">
          <mxGeometry x="60" y="655" width="166.5" height="110" as="geometry" />
        </mxCell>
        <mxCell id="YhOTxX4KygDr3iV7FcbI-17" value="false" style="edgeStyle=orthogonalEdgeStyle;rounded=0;orthogonalLoop=1;jettySize=auto;html=1;exitX=1;exitY=0.5;exitDx=0;exitDy=0;entryX=0.183;entryY=1.052;entryDx=0;entryDy=0;entryPerimeter=0;" parent="WIyWlLk6GJQsqaUBKTNV-1" source="YhOTxX4KygDr3iV7FcbI-18" target="YhOTxX4KygDr3iV7FcbI-2" edge="1">
          <mxGeometry relative="1" as="geometry">
            <mxPoint x="1410" y="380" as="sourcePoint" />
          </mxGeometry>
        </mxCell>
        <mxCell id="6eJlKw85BkEIQBGvRNYy-22" style="edgeStyle=orthogonalEdgeStyle;rounded=0;orthogonalLoop=1;jettySize=auto;html=1;entryX=0;entryY=0.5;entryDx=0;entryDy=0;" parent="WIyWlLk6GJQsqaUBKTNV-1" source="6eJlKw85BkEIQBGvRNYy-19" target="6eJlKw85BkEIQBGvRNYy-21" edge="1">
          <mxGeometry relative="1" as="geometry" />
        </mxCell>
        <mxCell id="6eJlKw85BkEIQBGvRNYy-19" value="du lieu sai" style="rounded=0;whiteSpace=wrap;html=1;" parent="WIyWlLk6GJQsqaUBKTNV-1" vertex="1">
          <mxGeometry x="83.25" y="890" width="120" height="60" as="geometry" />
        </mxCell>
        <mxCell id="6eJlKw85BkEIQBGvRNYy-21" value="end" style="ellipse;whiteSpace=wrap;html=1;" parent="WIyWlLk6GJQsqaUBKTNV-1" vertex="1">
          <mxGeometry x="1330" y="1180" width="270" height="160" as="geometry" />
        </mxCell>
        <mxCell id="YhOTxX4KygDr3iV7FcbI-3" style="edgeStyle=orthogonalEdgeStyle;rounded=0;orthogonalLoop=1;jettySize=auto;html=1;entryX=0;entryY=0.5;entryDx=0;entryDy=0;" parent="WIyWlLk6GJQsqaUBKTNV-1" source="YhOTxX4KygDr3iV7FcbI-0" target="YhOTxX4KygDr3iV7FcbI-2" edge="1">
          <mxGeometry relative="1" as="geometry" />
        </mxCell>
        <mxCell id="YhOTxX4KygDr3iV7FcbI-5" value="flase" style="edgeLabel;html=1;align=center;verticalAlign=middle;resizable=0;points=[];" parent="YhOTxX4KygDr3iV7FcbI-3" vertex="1" connectable="0">
          <mxGeometry x="-0.0765" y="1" relative="1" as="geometry">
            <mxPoint as="offset" />
          </mxGeometry>
        </mxCell>
        <mxCell id="YhOTxX4KygDr3iV7FcbI-0" value="year&amp;gt;0" style="rhombus;whiteSpace=wrap;html=1;" parent="WIyWlLk6GJQsqaUBKTNV-1" vertex="1">
          <mxGeometry x="390" y="-60" width="80" height="80" as="geometry" />
        </mxCell>
        <mxCell id="YhOTxX4KygDr3iV7FcbI-7" style="edgeStyle=orthogonalEdgeStyle;rounded=0;orthogonalLoop=1;jettySize=auto;html=1;" parent="WIyWlLk6GJQsqaUBKTNV-1" source="YhOTxX4KygDr3iV7FcbI-2" target="6eJlKw85BkEIQBGvRNYy-21" edge="1">
          <mxGeometry relative="1" as="geometry">
            <Array as="points">
              <mxPoint x="2130" y="-130" />
              <mxPoint x="2130" y="1180" />
            </Array>
          </mxGeometry>
        </mxCell>
        <mxCell id="YhOTxX4KygDr3iV7FcbI-2" value="du lieu ko hop le" style="rounded=0;whiteSpace=wrap;html=1;" parent="WIyWlLk6GJQsqaUBKTNV-1" vertex="1">
          <mxGeometry x="1690" y="-130" width="390" height="140" as="geometry" />
        </mxCell>
        <mxCell id="YhOTxX4KygDr3iV7FcbI-6" style="edgeStyle=orthogonalEdgeStyle;rounded=0;orthogonalLoop=1;jettySize=auto;html=1;entryX=0.5;entryY=0;entryDx=0;entryDy=0;" parent="WIyWlLk6GJQsqaUBKTNV-1" source="YhOTxX4KygDr3iV7FcbI-0" target="hYsjxtnpzR200vg89-Xv-2" edge="1">
          <mxGeometry relative="1" as="geometry">
            <mxPoint x="409.96000000000004" y="89.03999999999996" as="targetPoint" />
          </mxGeometry>
        </mxCell>
        <mxCell id="YhOTxX4KygDr3iV7FcbI-29" style="edgeStyle=orthogonalEdgeStyle;rounded=0;orthogonalLoop=1;jettySize=auto;html=1;" parent="WIyWlLk6GJQsqaUBKTNV-1" source="YhOTxX4KygDr3iV7FcbI-8" edge="1">
          <mxGeometry relative="1" as="geometry">
            <mxPoint x="1600" y="820" as="targetPoint" />
          </mxGeometry>
        </mxCell>
        <mxCell id="YhOTxX4KygDr3iV7FcbI-8" value="30&amp;gt;day&amp;gt;1" style="rhombus;whiteSpace=wrap;html=1;" parent="WIyWlLk6GJQsqaUBKTNV-1" vertex="1">
          <mxGeometry x="1270" y="92.5" width="140" height="122.5" as="geometry" />
        </mxCell>
        <mxCell id="YhOTxX4KygDr3iV7FcbI-30" style="edgeStyle=orthogonalEdgeStyle;rounded=0;orthogonalLoop=1;jettySize=auto;html=1;" parent="WIyWlLk6GJQsqaUBKTNV-1" source="YhOTxX4KygDr3iV7FcbI-18" edge="1">
          <mxGeometry relative="1" as="geometry">
            <mxPoint x="1600" y="820" as="targetPoint" />
          </mxGeometry>
        </mxCell>
        <mxCell id="YhOTxX4KygDr3iV7FcbI-32" value="true" style="edgeLabel;html=1;align=center;verticalAlign=middle;resizable=0;points=[];" parent="YhOTxX4KygDr3iV7FcbI-30" vertex="1" connectable="0">
          <mxGeometry x="-0.0474" relative="1" as="geometry">
            <mxPoint y="-1" as="offset" />
          </mxGeometry>
        </mxCell>
        <mxCell id="YhOTxX4KygDr3iV7FcbI-18" value="&#xa;28&amp;gt;day&amp;gt;1&#xa;&#xa;" style="rhombus;whiteSpace=wrap;html=1;" parent="WIyWlLk6GJQsqaUBKTNV-1" vertex="1">
          <mxGeometry x="1310" y="310" width="150" height="140" as="geometry" />
        </mxCell>
        <mxCell id="YhOTxX4KygDr3iV7FcbI-27" style="edgeStyle=orthogonalEdgeStyle;rounded=0;orthogonalLoop=1;jettySize=auto;html=1;" parent="WIyWlLk6GJQsqaUBKTNV-1" source="YhOTxX4KygDr3iV7FcbI-21" edge="1">
          <mxGeometry relative="1" as="geometry">
            <mxPoint x="1760" y="10" as="targetPoint" />
          </mxGeometry>
        </mxCell>
        <mxCell id="YhOTxX4KygDr3iV7FcbI-31" style="edgeStyle=orthogonalEdgeStyle;rounded=0;orthogonalLoop=1;jettySize=auto;html=1;" parent="WIyWlLk6GJQsqaUBKTNV-1" edge="1">
          <mxGeometry relative="1" as="geometry">
            <mxPoint x="1600.05" y="820" as="targetPoint" />
            <mxPoint x="1050.0022546419102" y="659.9655172413795" as="sourcePoint" />
          </mxGeometry>
        </mxCell>
        <mxCell id="YhOTxX4KygDr3iV7FcbI-21" value="31&amp;gt;days&amp;gt;1" style="rhombus;whiteSpace=wrap;html=1;" parent="WIyWlLk6GJQsqaUBKTNV-1" vertex="1">
          <mxGeometry x="870" y="585" width="180" height="130" as="geometry" />
        </mxCell>
        <mxCell id="YhOTxX4KygDr3iV7FcbI-28" style="edgeStyle=orthogonalEdgeStyle;rounded=0;orthogonalLoop=1;jettySize=auto;html=1;entryX=0.179;entryY=1.064;entryDx=0;entryDy=0;entryPerimeter=0;" parent="WIyWlLk6GJQsqaUBKTNV-1" source="YhOTxX4KygDr3iV7FcbI-8" target="YhOTxX4KygDr3iV7FcbI-2" edge="1">
          <mxGeometry relative="1" as="geometry" />
        </mxCell>
        <mxCell id="YhOTxX4KygDr3iV7FcbI-34" style="edgeStyle=orthogonalEdgeStyle;rounded=0;orthogonalLoop=1;jettySize=auto;html=1;entryX=0.5;entryY=0;entryDx=0;entryDy=0;" parent="WIyWlLk6GJQsqaUBKTNV-1" source="YhOTxX4KygDr3iV7FcbI-33" target="6eJlKw85BkEIQBGvRNYy-21" edge="1">
          <mxGeometry relative="1" as="geometry" />
        </mxCell>
        <mxCell id="YhOTxX4KygDr3iV7FcbI-33" value="du lieu nhap thoa man" style="rounded=0;whiteSpace=wrap;html=1;" parent="WIyWlLk6GJQsqaUBKTNV-1" vertex="1">
          <mxGeometry x="1540" y="820" width="170" height="100" as="geometry" />
        </mxCell>
        <mxCell id="hYsjxtnpzR200vg89-Xv-0" value="true" style="text;html=1;strokeColor=none;fillColor=none;align=center;verticalAlign=middle;whiteSpace=wrap;rounded=0;" vertex="1" parent="WIyWlLk6GJQsqaUBKTNV-1">
          <mxGeometry x="430" y="30" width="60" height="30" as="geometry" />
        </mxCell>
        <mxCell id="hYsjxtnpzR200vg89-Xv-1" value="false" style="text;html=1;strokeColor=none;fillColor=none;align=center;verticalAlign=middle;whiteSpace=wrap;rounded=0;" vertex="1" parent="WIyWlLk6GJQsqaUBKTNV-1">
          <mxGeometry x="570" y="-60" width="60" height="30" as="geometry" />
        </mxCell>
        <mxCell id="hYsjxtnpzR200vg89-Xv-2" value="&#xa;&lt;span style=&quot;color: rgb(240, 240, 240); font-family: Helvetica; font-size: 12px; font-style: normal; font-variant-ligatures: normal; font-variant-caps: normal; font-weight: 400; letter-spacing: normal; orphans: 2; text-align: center; text-indent: 0px; text-transform: none; widows: 2; word-spacing: 0px; -webkit-text-stroke-width: 0px; background-color: rgb(27, 29, 30); text-decoration-thickness: initial; text-decoration-style: initial; text-decoration-color: initial; float: none; display: inline !important;&quot;&gt;switch(month)&lt;/span&gt;&#xa;&#xa;" style="rhombus;whiteSpace=wrap;html=1;" vertex="1" parent="WIyWlLk6GJQsqaUBKTNV-1">
          <mxGeometry x="340" y="100" width="110" height="96" as="geometry" />
        </mxCell>
      </root>
    </mxGraphModel>
  </diagram>
</mxfile>
